<?xml version="1.0" encoding="UTF-8"?>
<!DOCTYPE svg PUBLIC "-//W3C//DTD SVG 1.1//EN" "http://www.w3.org/Graphics/SVG/1.1/DTD/svg11.dtd">
<!-- Creator: CorelDRAW X6 -->
<svg xmlns="http://www.w3.org/2000/svg" xml:space="preserve" width="210mm" height="297mm" version="1.1" style="shape-rendering:geometricPrecision; text-rendering:geometricPrecision; image-rendering:optimizeQuality; fill-rule:evenodd; clip-rule:evenodd"
viewBox="0 0 21000 29700"
 xmlns:xlink="http://www.w3.org/1999/xlink">
 <defs>
  <style type="text/css">
   <![CDATA[
    .str0 {stroke:black;stroke-width:21.17;stroke-linecap:round;stroke-linejoin:round}
    .fil1 {fill:none}
    .fil2 {fill:white}
    .fil3 {fill:black;fill-rule:nonzero}
    .fil0 {fill:#EBECEC;fill-rule:nonzero}
   ]]>
  </style>
 </defs>
 <g id="Ebene_x0020_1">
  <metadata id="CorelCorpID_0Corel-Layer"/>
  <polygon class="fil0" points="2877,6165 7096,6165 7096,5297 2877,5297 "/>
  <line class="fil1 str0" x1="4987" y1="5308" x2="4987" y2= "5392" />
  <polygon class="fil2" points="3166,6070 6807,6070 6807,5392 3166,5392 "/>
  <polygon class="fil1 str0" points="3166,6070 6807,6070 6807,5392 3166,5392 "/>
  <line class="fil1 str0" x1="4987" y1="6070" x2="4987" y2= "6154" />
  <polygon class="fil3" points="4792,5854 4792,5667 4722,5667 4722,5642 4890,5642 4890,5667 4820,5667 4820,5854 "/>
  <path id="1" class="fil3" d="M4988 5804l27 4c-5,15 -12,27 -24,36 -11,9 -26,13 -44,13 -22,0 -40,-7 -53,-21 -13,-13 -20,-33 -20,-58 0,-26 7,-46 20,-60 13,-14 31,-21 52,-21 20,0 37,7 50,21 13,14 19,33 19,59 0,1 0,4 0,7l-114 0c1,16 6,29 14,38 9,9 19,14 32,14 10,0 18,-3 25,-8 6,-5 12,-13 16,-24zm-86 -42l86 0c-1,-13 -5,-22 -10,-29 -8,-10 -19,-15 -32,-15 -12,0 -22,4 -30,12 -8,8 -13,19 -14,32z"/>
  <path id="2" class="fil3" d="M5030 5854l56 -80 -52 -74 32 0 24 36c5,7 8,13 11,17 4,-6 8,-12 12,-17l25 -36 32 0 -52 74 55 80 -31 0 -32 -48 -7 -11 -41 59 -32 0z"/>
  <path id="3" class="fil3" d="M5252 5831l4 23c-8,1 -14,2 -20,2 -9,0 -17,-2 -22,-5 -5,-3 -9,-7 -11,-11 -2,-5 -3,-16 -3,-31l0 -89 -19 0 0 -20 19 0 0 -38 26 -16 0 54 26 0 0 20 -26 0 0 90c0,8 1,12 1,15 1,2 3,3 5,5 2,1 5,2 9,2 3,0 6,-1 11,-1z"/>
 </g>
</svg>
